<?xml version="1.0" standalone="no"?>
<!DOCTYPE svg PUBLIC "-//W3C//DTD SVG 20010904//EN"
 "http://www.w3.org/TR/2001/REC-SVG-20010904/DTD/svg10.dtd">
<svg version="1.0" xmlns="http://www.w3.org/2000/svg"
 width="512.000000pt" height="512.000000pt" viewBox="0 0 512.000000 512.000000"
 preserveAspectRatio="xMidYMid meet">
<metadata>
Created by potrace 1.14, written by Peter Selinger 2001-2017
</metadata>
<g transform="translate(0.000000,512.000000) scale(0.100000,-0.100000)"
fill="#000000" stroke="none">
<path d="M2547 4904 c-2 -3 -15 -7 -27 -9 -23 -4 -46 -22 -106 -82 -18 -17
-46 -39 -62 -47 -40 -21 -72 -67 -74 -108 -2 -43 12 -108 23 -108 5 0 9 -6 9
-13 0 -7 34 -48 76 -92 89 -95 109 -130 119 -210 10 -88 7 -195 -6 -211 -13
-16 -49 -19 -49 -4 0 6 -7 10 -15 10 -8 0 -15 5 -15 12 0 6 -6 19 -13 27 -14
17 -33 69 -41 111 -17 89 -58 225 -76 250 -21 30 -80 68 -80 52 0 -4 -9 -8
-21 -9 -11 -1 -36 -16 -55 -32 -19 -17 -40 -31 -47 -32 -87 -5 -134 -52 -121
-122 3 -18 7 -39 8 -47 3 -15 -29 -68 -49 -82 -6 -5 -6 -8 0 -8 5 0 4 -5 -2
-11 -16 -16 4 -70 33 -92 18 -13 41 -18 87 -18 81 1 97 3 97 10 0 6 58 7 70 2
3 -2 15 -4 28 -7 45 -8 151 -66 198 -107 66 -58 74 -83 74 -241 0 -128 -1
-134 -23 -148 -39 -27 -96 14 -103 72 -2 18 -6 36 -9 41 -4 5 -1 9 5 9 6 0 8
4 5 10 -3 5 -8 31 -11 56 -2 26 -9 54 -15 61 -7 7 -9 13 -5 13 10 0 -24 62
-48 88 -44 50 -95 63 -164 43 -24 -7 -57 -9 -73 -6 -42 10 -91 -10 -116 -48
-18 -26 -21 -42 -17 -83 3 -33 -1 -68 -11 -95 -20 -60 -19 -83 8 -124 31 -48
91 -67 262 -81 116 -9 132 -12 175 -34 122 -62 142 -116 143 -378 1 -100 -2
-125 -15 -139 -34 -33 -61 2 -72 93 -7 61 -17 126 -30 191 -18 91 -58 145
-128 171 -47 18 -56 18 -92 5 -30 -10 -66 -12 -136 -7 -94 6 -95 5 -128 -23
-32 -26 -34 -32 -36 -98 -1 -53 -7 -79 -24 -105 -37 -60 -24 -119 38 -168 25
-19 100 -55 100 -47 0 2 15 -1 33 -6 17 -5 68 -12 112 -14 172 -11 195 -20
272 -103 l51 -56 27 18 c33 22 111 25 145 6 34 -19 43 -19 60 5 74 102 111
118 298 130 46 2 86 7 90 9 4 2 24 7 45 10 45 7 70 19 112 54 61 50 70 100 31
166 -18 30 -23 54 -22 91 4 107 -41 141 -174 131 -63 -5 -97 -3 -127 8 -36 13
-44 12 -93 -8 -86 -34 -128 -113 -145 -273 -17 -160 -44 -219 -82 -180 -16 15
-18 35 -16 142 3 246 18 293 114 357 56 38 63 39 209 53 149 14 175 19 217 42
30 16 71 76 65 96 -1 4 -3 15 -5 25 -1 9 -6 23 -10 30 -5 6 -5 12 -1 12 3 0 1
6 -5 14 -7 8 -9 36 -6 71 8 98 -44 153 -133 140 -31 -4 -58 -1 -81 8 -22 10
-45 12 -68 7 -41 -10 -103 -50 -103 -67 0 -7 -4 -13 -8 -13 -9 0 -39 -82 -46
-125 -2 -16 -5 -56 -5 -87 -1 -45 -6 -62 -26 -87 -30 -35 -63 -43 -88 -20 -17
15 -18 32 -15 161 3 135 5 147 28 181 27 39 123 107 183 128 20 7 37 16 37 19
0 4 6 7 13 8 6 0 33 2 60 5 26 2 47 1 47 -3 0 -8 5 -8 86 -11 91 -3 159 46
132 95 -5 10 -7 20 -4 23 3 3 -8 23 -25 44 -28 35 -30 42 -20 71 25 78 -11
133 -95 144 -21 2 -48 16 -67 34 -29 27 -46 35 -69 31 -5 0 -8 3 -8 9 0 16
-34 -2 -66 -36 -27 -28 -48 -77 -59 -134 -2 -10 -8 -35 -14 -55 -6 -21 -8 -42
-5 -47 3 -4 1 -8 -3 -8 -8 0 -13 -19 -16 -62 -1 -10 -5 -18 -9 -18 -4 0 -7 -3
-6 -7 6 -16 -43 -84 -67 -95 -44 -20 -57 5 -56 102 2 175 14 209 119 317 38
40 67 75 64 78 -3 3 -1 5 5 5 16 0 46 77 46 118 -1 58 -18 88 -70 122 -26 18
-62 47 -78 64 -54 54 -73 68 -109 76 -19 4 -37 6 -39 4z"/>
<path d="M943 4329 c-12 -4 -39 -26 -60 -47 -21 -21 -55 -47 -76 -57 -50 -23
-87 -81 -87 -135 0 -37 6 -47 58 -98 31 -32 74 -72 96 -91 55 -48 76 -102 81
-213 4 -99 -1 -138 -18 -138 -5 0 -27 18 -47 39 -35 37 -44 58 -57 146 -24
166 -90 212 -226 161 -37 -14 -83 -26 -101 -26 -70 0 -119 -88 -85 -151 16
-31 19 -60 9 -80 -12 -21 3 -66 29 -90 42 -40 53 -41 201 -22 110 15 157 9
199 -25 20 -16 49 -48 65 -70 29 -41 30 -46 29 -150 -2 -121 -12 -162 -40
-157 -10 2 -22 4 -26 4 -13 1 -36 64 -42 117 -16 135 -31 166 -95 193 -58 25
-66 24 -150 -17 -36 -18 -76 -32 -91 -32 -99 0 -143 -71 -103 -166 16 -37 19
-73 10 -119 -2 -11 4 -32 12 -47 38 -65 151 -80 261 -34 79 34 129 32 197 -6
42 -23 64 -28 116 -28 56 0 70 4 118 35 30 19 61 36 70 36 74 7 120 4 182 -12
39 -11 98 -19 130 -19 52 0 62 4 93 33 26 23 36 40 35 62 -3 228 -3 232 -34
264 -25 26 -60 41 -111 46 -5 1 -18 -2 -27 -7 -27 -13 -82 -16 -102 -6 -53 28
-125 16 -166 -27 -22 -24 -25 -51 -16 -135 5 -48 -15 -100 -51 -127 -25 -19
-39 -24 -50 -17 -8 5 -15 14 -15 19 0 6 -4 16 -10 23 -8 8 -7 12 3 12 9 0 10
3 4 8 -14 9 -11 208 3 242 28 69 106 110 197 105 196 -11 239 -4 267 43 9 15
16 47 17 72 1 54 4 71 14 88 5 7 9 33 10 58 1 42 -2 50 -32 75 -19 15 -52 31
-75 35 -72 11 -76 13 -108 29 -53 26 -101 18 -149 -25 -35 -32 -46 -70 -54
-188 -6 -84 -35 -147 -74 -157 -40 -10 -46 7 -45 145 1 143 6 159 73 215 96
80 136 145 128 207 -6 46 -18 62 -72 96 -22 14 -53 38 -69 54 -55 56 -100 73
-143 57z"/>
<path d="M4105 4326 c-16 -7 -46 -29 -65 -48 -19 -19 -53 -46 -75 -60 -54 -34
-66 -50 -72 -96 -8 -61 35 -130 133 -212 59 -49 66 -70 68 -193 3 -129 -3
-159 -28 -163 -23 -3 -56 17 -56 33 0 7 -4 13 -9 13 -11 0 -19 35 -26 115 -11
134 -26 171 -78 204 -43 26 -79 26 -136 1 -24 -11 -56 -20 -71 -20 -36 0 -91
-23 -114 -49 -11 -12 -18 -34 -17 -58 1 -57 4 -73 11 -73 7 0 8 -3 11 -80 3
-70 10 -83 55 -105 36 -17 79 -19 229 -10 90 5 170 -37 197 -103 6 -15 11 -74
12 -132 3 -154 -17 -200 -70 -165 -51 33 -59 62 -54 193 1 40 -3 58 -16 74
-40 44 -101 56 -168 33 -39 -13 -50 -14 -86 -1 -62 21 -116 8 -162 -41 -18
-18 -27 -39 -27 -58 1 -81 1 -139 -1 -182 -3 -42 0 -50 35 -81 l38 -35 81 6
c44 3 99 12 121 20 22 7 70 13 107 12 59 -1 74 -6 120 -37 46 -30 62 -35 123
-37 62 -2 75 1 110 25 59 40 125 43 206 9 150 -64 282 -15 272 99 -2 22 -5 42
-8 44 -2 2 5 24 16 49 10 24 19 55 19 68 0 62 -47 105 -115 105 -22 0 -62 14
-102 35 -36 19 -72 35 -80 35 -8 0 -36 -9 -63 -21 -60 -26 -76 -56 -94 -177
-14 -93 -29 -129 -59 -138 -26 -8 -46 22 -48 71 -6 155 -1 198 28 238 15 22
44 53 64 69 42 34 88 40 198 26 154 -20 160 -19 202 21 31 30 39 56 28 94 -8
28 -6 43 6 66 19 38 19 85 -1 116 -17 26 -34 35 -79 41 -16 3 -63 16 -103 29
-90 31 -108 31 -154 0 -39 -26 -54 -65 -78 -195 -12 -67 -43 -120 -82 -141
-31 -17 -37 2 -33 116 3 119 23 174 80 226 124 111 147 138 154 176 10 53 -28
116 -89 150 -25 14 -63 43 -84 64 -22 21 -45 39 -52 39 -7 0 -18 2 -26 5 -7 2
-26 -2 -43 -9z"/>
<path d="M1059 2966 c-2 -2 -40 -7 -83 -10 -43 -4 -82 -8 -85 -10 -3 -2 -27
-7 -53 -10 -64 -9 -254 -64 -303 -88 -163 -81 -269 -204 -308 -357 -16 -63
-12 -259 5 -276 9 -9 -2 -35 -13 -35 -5 0 -22 -12 -37 -27 -151 -149 -189
-363 -95 -535 25 -46 133 -171 133 -154 0 4 9 -2 20 -12 11 -10 42 -29 68 -41
l48 -23 12 -69 c23 -134 114 -270 222 -332 48 -27 150 -57 196 -57 16 0 69 8
118 17 84 16 91 16 138 -1 28 -10 57 -19 67 -21 9 -3 34 -9 56 -14 70 -17 226
10 231 41 1 9 5 45 8 79 5 53 18 146 31 227 2 12 1 22 -3 22 -4 0 -31 -34 -61
-75 -30 -41 -70 -89 -89 -107 l-34 -33 28 50 c15 28 53 90 86 138 32 48 58 91
58 96 0 5 6 14 14 20 8 7 17 24 21 38 3 15 15 39 26 55 11 15 18 28 15 28 -7
0 105 215 157 301 92 152 123 213 163 317 14 37 27 72 28 77 8 33 28 102 33
115 3 8 7 22 8 30 1 8 5 30 9 48 3 17 5 32 3 32 -17 0 -167 -83 -183 -101 -12
-13 -27 -49 -34 -79 -17 -73 -83 -263 -116 -337 -15 -32 -28 -64 -30 -70 -1
-7 -16 -35 -33 -63 -17 -27 -29 -50 -26 -50 2 0 -18 -36 -45 -80 -28 -44 -50
-82 -50 -85 0 -28 -260 -365 -282 -365 -5 0 -6 -4 -3 -10 3 -5 -1 -10 -9 -10
-9 0 -16 3 -16 7 0 6 38 59 94 131 59 75 175 260 236 377 35 66 68 123 73 126
5 3 8 10 8 15 -1 18 23 74 33 74 5 0 6 3 3 7 -4 3 0 17 8 30 9 13 13 23 10 23
-3 0 3 17 14 38 10 20 19 39 19 42 0 3 6 19 12 35 17 44 61 198 57 201 -4 5
-151 -86 -175 -109 -26 -24 -35 -42 -87 -177 -32 -82 -75 -174 -127 -270 -22
-42 -152 -244 -165 -258 -7 -7 -13 -17 -13 -21 0 -4 -27 -36 -61 -71 -55 -59
-58 -61 -38 -25 34 60 49 85 86 142 18 28 33 56 33 62 0 5 8 15 18 20 9 6 14
11 10 11 -4 0 11 28 33 63 87 133 224 448 181 415 -70 -53 -229 -232 -303
-343 -87 -129 -164 -301 -233 -520 l-26 -80 6 60 c20 212 138 481 286 657 13
15 37 43 53 64 42 52 91 107 147 164 27 27 48 51 48 54 0 14 -163 -36 -248
-76 -155 -73 -320 -242 -426 -439 -14 -26 -39 -69 -56 -95 -31 -48 -32 -49
-25 -14 4 19 17 55 28 80 11 25 21 47 22 50 10 29 26 59 35 65 5 3 8 11 5 16
-4 5 -1 9 4 9 6 0 11 6 11 14 0 8 3 16 8 18 4 2 26 29 50 61 87 116 185 203
302 266 73 39 230 91 274 91 50 0 131 34 216 92 93 63 102 80 43 83 -66 5
-118 7 -123 5 -3 0 -34 -3 -70 -4 -36 -2 -65 -4 -65 -5 0 -2 -13 -5 -30 -7
-16 -3 -48 -10 -70 -16 -22 -6 -46 -12 -53 -14 -59 -11 -228 -99 -332 -172
-96 -67 -227 -193 -343 -327 -31 -37 -57 -63 -57 -58 0 16 96 156 134 198 21
22 43 47 49 55 23 29 133 118 217 175 79 54 264 149 330 170 47 14 101 28 125
32 62 9 271 10 289 0 13 -6 16 -6 11 3 -5 9 -2 10 11 3 27 -13 113 -9 149 7
17 7 33 13 38 12 4 -1 7 1 7 6 0 4 20 18 45 32 25 14 45 27 45 31 0 13 -240
76 -331 86 -89 9 -240 6 -302 -7 -29 -5 -62 -12 -74 -14 -42 -8 -173 -47 -211
-62 -140 -58 -326 -166 -402 -233 -24 -21 -70 -63 -134 -120 -56 -50 -11 11
66 89 64 66 102 97 223 185 15 11 57 36 94 55 150 81 280 122 471 150 59 8
275 5 325 -5 88 -18 130 -29 227 -60 79 -26 118 -33 145 -29 33 5 181 58 191
69 11 11 -299 143 -353 151 -11 1 -20 3 -20 4 0 2 -33 10 -60 15 -11 2 -21 4
-22 5 -2 2 -12 4 -23 5 -11 1 -21 3 -22 5 -2 1 -23 4 -48 7 -118 15 -371 2
-439 -23 -8 -2 -30 -7 -50 -10 -95 -15 -313 -102 -511 -205 -143 -74 -141 -61
6 37 82 54 246 136 297 149 15 4 27 12 27 18 0 6 3 8 6 5 3 -3 33 3 67 13 34
11 76 22 92 24 17 3 39 9 50 12 11 4 28 8 38 9 9 1 18 2 20 3 18 15 337 35
337 21 0 -3 28 -6 62 -7 34 -2 64 -6 67 -10 3 -5 20 -9 36 -11 62 -5 75 -7 75
-14 0 -5 7 -8 16 -8 33 0 204 -65 320 -121 l121 -59 69 24 c40 13 69 29 70 37
0 8 4 23 8 34 5 11 13 33 18 48 6 15 9 29 7 31 -6 5 -217 77 -237 81 -9 2 -17
4 -17 5 0 1 -7 3 -15 5 -8 2 -40 11 -70 20 -75 22 -73 21 -180 44 -52 10 -115
22 -140 26 -25 3 -52 8 -60 10 -8 2 -40 7 -70 10 -30 3 -75 8 -100 11 -51 7
-456 15 -461 10z m14 -1813 c3 -5 -5 -16 -18 -25 -23 -17 -23 -17 -11 7 11 25
21 31 29 18z"/>
<path d="M3709 2966 c-2 -2 -40 -6 -84 -9 -215 -15 -517 -77 -717 -146 -31
-11 -59 -17 -62 -14 -3 4 -6 1 -6 -6 0 -7 -4 -10 -8 -7 -4 2 -27 -4 -51 -15
-24 -10 -50 -19 -58 -19 -11 0 -13 -6 -8 -22 3 -13 12 -43 19 -67 12 -43 14
-45 80 -67 l68 -23 112 53 c141 67 184 86 196 86 5 0 21 5 37 12 33 13 28 12
123 38 89 24 121 30 175 35 22 2 40 5 40 6 0 6 173 4 182 -3 7 -5 14 -5 18 2
3 6 11 7 17 3 7 -3 32 -8 56 -10 25 -2 50 -7 56 -11 6 -5 22 -7 36 -6 13 1 42
-4 62 -12 21 -7 38 -11 38 -9 0 3 11 0 25 -5 14 -5 36 -12 48 -14 85 -18 301
-118 412 -191 152 -101 140 -104 -45 -12 -213 106 -406 178 -515 192 -22 3
-46 8 -54 11 -44 15 -299 23 -386 11 -22 -3 -40 -6 -40 -7 0 -1 -18 -4 -39 -6
-21 -3 -48 -10 -58 -15 -11 -6 -22 -8 -25 -5 -4 3 -11 2 -17 -3 -6 -4 -33 -14
-61 -21 -27 -7 -54 -16 -60 -20 -5 -4 -32 -15 -60 -25 -27 -10 -81 -34 -120
-53 l-70 -35 54 -23 c29 -13 59 -24 65 -24 7 0 16 -4 22 -9 25 -25 94 -20 201
14 179 56 253 69 408 70 271 1 501 -71 735 -228 41 -28 90 -64 109 -81 58 -52
162 -160 173 -181 l11 -20 -23 20 c-28 24 -42 36 -106 96 -27 25 -78 65 -114
90 -290 197 -617 289 -915 255 -38 -4 -72 -9 -76 -11 -3 -2 -19 -7 -36 -9 -33
-6 -206 -55 -211 -61 -5 -5 48 -40 108 -71 43 -23 68 -29 117 -29 35 0 63 2
63 5 0 5 259 5 270 1 3 -1 18 -4 35 -6 52 -7 125 -27 125 -34 0 -4 8 -7 18 -8
36 -3 220 -96 317 -161 95 -64 295 -246 295 -269 0 -6 3 -13 8 -15 11 -5 67
-88 86 -128 9 -19 11 -28 4 -19 -34 42 -159 178 -204 223 -124 124 -232 204
-375 275 -54 28 -102 50 -104 50 -3 0 -34 8 -68 19 -34 11 -80 23 -102 27 -57
11 -325 13 -331 4 -7 -12 103 -96 171 -129 33 -16 90 -34 128 -40 132 -20 290
-86 389 -160 114 -86 283 -303 313 -400 1 -3 8 -21 17 -41 9 -20 19 -51 23
-70 6 -31 4 -30 -28 21 -19 30 -53 87 -76 127 -59 103 -178 247 -253 307 -43
35 -130 88 -166 102 -21 8 -46 19 -57 24 -33 16 -163 49 -169 43 -2 -3 24 -35
58 -71 53 -57 102 -111 151 -169 178 -208 296 -471 319 -708 l6 -60 -25 84
c-59 194 -164 436 -212 488 -6 7 -15 22 -18 33 -3 11 -11 20 -16 20 -5 0 -9 6
-9 14 0 8 -13 27 -30 43 -16 15 -30 31 -30 36 0 13 -158 182 -218 232 -22 18
-22 15 11 -76 41 -111 89 -210 163 -332 30 -49 54 -92 54 -98 0 -5 5 -9 10 -9
6 0 15 -11 19 -24 5 -13 25 -47 43 -77 19 -30 45 -72 58 -94 l23 -40 -32 30
c-18 17 -53 57 -77 90 -24 33 -49 66 -54 72 -6 7 -7 13 -3 13 4 0 3 4 -3 8
-44 28 -240 399 -285 537 -25 77 -73 134 -143 170 -21 11 -46 24 -57 30 -10 5
-19 13 -19 17 0 5 -5 8 -10 8 -6 0 -8 -11 -4 -27 10 -40 63 -203 78 -238 7
-16 19 -46 26 -65 7 -19 16 -39 20 -45 4 -5 10 -22 14 -37 3 -16 11 -28 17
-28 6 0 7 -4 4 -10 -3 -5 -1 -10 6 -10 7 0 10 -3 6 -6 -16 -16 253 -463 318
-528 8 -8 15 -19 15 -25 0 -5 8 -15 18 -20 9 -6 13 -11 7 -11 -6 0 -6 -3 1 -8
6 -4 26 -29 44 -57 36 -54 19 -45 -39 19 -20 22 -41 44 -46 50 -112 120 -261
348 -365 556 -53 105 -80 168 -80 183 0 7 -4 17 -9 22 -10 11 -74 209 -86 265
-8 36 -34 79 -48 80 -5 0 -22 9 -38 21 -16 11 -35 22 -42 23 -7 1 -27 9 -46
19 -19 9 -36 17 -38 17 -2 0 -1 -17 3 -37 4 -21 7 -44 7 -50 0 -7 4 -13 10
-13 5 0 7 -6 4 -12 -2 -7 2 -28 10 -46 7 -18 11 -37 8 -42 -4 -6 -2 -10 3 -10
5 0 9 -6 9 -12 0 -27 77 -203 124 -283 27 -47 71 -122 97 -167 52 -90 134
-254 132 -264 -1 -4 2 -10 7 -13 4 -3 19 -28 31 -56 13 -27 52 -93 87 -147 35
-53 75 -118 90 -145 l27 -48 -31 29 c-17 16 -57 64 -88 107 -32 42 -61 75 -64
73 -7 -4 -5 -26 6 -84 3 -19 8 -51 10 -70 7 -52 18 -163 18 -177 1 -23 187
-47 242 -31 17 5 38 11 49 13 10 3 38 12 62 21 42 16 68 16 164 -3 107 -20
196 -6 288 44 107 58 201 197 224 332 l12 69 50 26 c76 39 86 46 143 104 139
141 165 342 68 518 -32 59 -117 154 -137 154 -5 0 -7 3 -4 8 18 29 29 249 13
269 -5 7 -7 20 -3 28 3 8 2 15 -3 15 -4 0 -8 6 -8 13 0 52 -160 267 -199 267
-8 0 -14 4 -14 9 0 14 -151 78 -250 104 -94 26 -131 34 -200 43 -19 3 -48 7
-65 10 -34 6 -441 15 -446 10z"/>
<path d="M2504 2765 c-68 -35 -91 -83 -82 -178 2 -29 65 -86 103 -93 99 -18
189 58 177 151 -1 11 -3 26 -4 33 -2 18 -68 86 -88 91 -34 8 -86 7 -106 -4z"/>
<path d="M2316 2556 l-69 -21 -28 -85 c-15 -47 -26 -86 -24 -88 2 -2 13 6 24
17 12 12 25 21 30 21 4 0 49 21 98 48 l90 47 -26 42 -26 41 -69 -22z"/>
<path d="M2713 2543 c-10 -18 -21 -33 -25 -33 -16 0 -7 -15 15 -26 74 -36 156
-80 179 -96 31 -21 56 -25 40 -5 -6 6 -10 14 -10 17 0 3 -8 31 -17 62 -19 66
-36 88 -70 88 -13 0 -26 4 -29 9 -3 5 -19 11 -35 13 -25 4 -32 -1 -48 -29z"/>
<path d="M2058 2471 l-97 -36 -7 -42 c-3 -24 -10 -43 -13 -43 -4 0 -8 -6 -8
-12 0 -7 -4 -26 -8 -43 -3 -16 -7 -36 -7 -42 -1 -7 -4 -13 -8 -13 -4 0 -7 -6
-8 -12 -1 -21 -10 -57 -17 -68 -8 -13 -25 -70 -21 -70 2 0 18 15 37 33 19 17
60 55 92 82 127 108 131 114 173 237 28 82 31 81 -108 29z"/>
<path d="M2956 2438 c44 -127 42 -123 164 -229 41 -35 77 -66 80 -69 3 -3 18
-16 34 -30 24 -21 27 -22 18 -5 -5 11 -10 23 -11 28 -1 4 -1 8 -2 10 0 1 -2 9
-4 17 -8 30 -47 165 -53 180 -3 8 -7 25 -8 38 -2 13 -8 30 -15 38 -6 8 -8 14
-3 15 13 0 -198 79 -213 79 -9 0 -5 -22 13 -72z"/>
<path d="M2475 2456 c-89 -42 -166 -75 -172 -75 -3 0 -9 -3 -12 -8 -3 -5 -31
-24 -61 -43 -30 -19 -59 -38 -65 -42 -280 -217 -394 -352 -535 -633 -53 -106
-137 -325 -124 -325 3 0 0 -8 -5 -19 -6 -10 -13 -31 -16 -47 -2 -16 -7 -40
-10 -54 -3 -14 -8 -45 -11 -70 -3 -25 -8 -54 -10 -65 -2 -11 -5 -67 -5 -123
-2 -91 1 -110 21 -150 22 -43 134 -152 157 -152 5 0 17 -24 27 -53 42 -120
115 -210 206 -257 86 -44 205 -64 287 -49 44 9 46 8 115 -46 38 -30 76 -55 84
-55 8 0 14 -5 14 -10 0 -6 3 -9 8 -8 4 1 22 -6 40 -15 17 -10 32 -15 32 -12 0
3 9 1 21 -5 27 -15 143 -15 196 -1 49 13 98 35 134 59 72 48 86 57 110 79 22
20 30 22 71 15 133 -25 304 32 396 132 45 49 62 78 92 160 18 46 31 63 79 98
55 40 110 101 112 123 0 6 5 16 11 22 20 25 10 243 -17 373 -8 41 -17 82 -18
90 -14 74 -83 262 -135 365 -103 207 -235 380 -402 526 -122 107 -379 262
-471 284 -25 6 -26 5 -28 -54 -1 -33 -4 -70 -6 -81 -2 -13 4 -25 18 -34 12 -7
63 -37 112 -66 131 -77 259 -175 348 -266 87 -89 186 -216 219 -284 13 -25 26
-47 29 -50 25 -20 112 -259 134 -367 18 -90 26 -235 14 -273 -7 -23 -7 -23 -9
10 -1 19 -3 44 -5 55 -2 11 -7 40 -10 65 -19 148 -51 264 -107 389 -32 72 -97
184 -110 189 -4 2 -8 8 -8 14 0 5 -6 15 -12 23 -7 7 -24 27 -38 45 -150 192
-310 328 -527 447 l-43 23 0 -83 0 -83 56 -37 c31 -20 61 -37 65 -37 5 0 9 -4
9 -10 0 -5 5 -10 11 -10 6 0 16 -6 23 -12 7 -7 32 -29 56 -48 168 -138 311
-328 379 -505 13 -33 27 -69 32 -80 6 -11 10 -32 11 -45 1 -14 5 -29 9 -35 14
-20 32 -162 31 -250 -1 -134 -8 -185 -39 -295 -17 -61 -29 -81 -29 -50 0 11 3
20 6 20 3 0 5 21 5 46 -1 25 2 47 5 49 8 5 4 371 -4 405 -3 14 -8 35 -10 47
-21 104 -99 278 -180 401 -50 76 -198 232 -258 272 -21 14 -38 28 -38 33 0 4
-7 7 -15 7 -8 0 -15 3 -15 8 0 4 -8 12 -19 17 -10 6 -33 18 -51 28 -17 10 -34
17 -36 15 -4 -5 -7 -218 -3 -222 2 -1 42 -29 89 -61 126 -87 210 -177 270
-288 43 -80 96 -232 106 -305 3 -26 8 -56 10 -67 11 -53 5 -239 -11 -320 -17
-95 -60 -233 -77 -250 -7 -7 -8 -3 -5 10 5 19 29 161 42 255 46 323 -41 632
-233 820 -56 55 -174 140 -195 140 -5 0 -7 -30 -5 -72 5 -71 7 -76 76 -178 40
-58 72 -111 72 -117 0 -7 5 -13 11 -13 5 0 7 -4 4 -10 -3 -5 -1 -10 4 -10 6 0
10 -3 9 -7 -1 -5 6 -26 16 -48 50 -113 97 -389 74 -438 -6 -11 -5 -17 2 -17 6
0 9 -4 6 -8 -3 -5 -7 -30 -11 -58 -10 -90 -15 -115 -32 -172 -9 -31 -18 -60
-19 -64 -1 -5 -3 -10 -4 -13 -1 -3 -3 -8 -5 -12 -6 -23 -18 -43 -26 -43 -5 0
-5 10 -1 23 5 12 8 29 7 37 -1 8 1 19 4 25 3 5 6 16 7 25 1 8 5 33 8 55 3 22
8 64 10 92 3 29 7 57 11 62 3 5 1 12 -5 16 -6 4 -8 11 -4 16 8 14 13 129 5
129 -3 0 -6 16 -5 36 1 20 -3 57 -8 82 -6 26 -10 54 -10 62 -1 8 -4 20 -8 25
-4 6 -6 18 -5 28 2 9 -1 17 -6 17 -5 0 -9 9 -9 19 0 43 -150 306 -163 284 -2
-4 -4 -228 -3 -498 2 -455 -3 -575 -25 -575 -19 0 -23 125 -23 589 l1 494 -33
-39 c-35 -40 -124 -205 -124 -230 0 -8 -5 -14 -12 -14 -6 0 -9 -2 -6 -6 3 -3
-1 -26 -8 -51 -8 -26 -12 -49 -9 -51 3 -3 1 -10 -5 -17 -8 -10 -17 -80 -24
-185 -1 -19 2 -41 7 -48 6 -7 5 -12 -2 -12 -7 0 -8 -8 -1 -25 6 -15 6 -26 -1
-30 -5 -4 -7 -11 -3 -16 3 -5 7 -31 9 -57 4 -51 21 -170 25 -182 1 -3 2 -20 2
-38 0 -18 3 -30 7 -28 4 3 8 -1 8 -9 0 -26 -15 -16 -26 18 -6 17 -11 35 -11
39 0 4 -9 28 -20 52 -10 24 -16 47 -13 49 3 3 1 12 -3 19 -12 19 -16 74 -19
229 -3 153 5 212 50 359 1 3 7 19 14 35 7 17 14 36 15 43 1 7 8 18 14 24 7 7
12 17 12 23 1 11 66 116 119 191 30 41 35 57 39 121 3 44 1 73 -5 73 -22 0
-141 -86 -199 -144 -191 -194 -275 -494 -228 -821 26 -183 30 -210 41 -250 12
-44 -15 3 -34 60 -29 85 -41 131 -54 205 -16 97 -13 292 6 360 2 8 6 31 9 50
11 71 76 236 113 286 13 17 23 34 23 39 0 23 152 167 241 228 l83 57 -3 107
c-1 59 -4 109 -5 111 -2 2 -19 -6 -37 -17 -19 -11 -47 -28 -64 -37 -16 -9 -34
-23 -38 -30 -4 -8 -14 -14 -21 -14 -8 0 -17 -7 -20 -16 -4 -9 -9 -14 -12 -11
-11 10 -187 -176 -236 -248 -50 -75 -118 -202 -118 -222 0 -7 -4 -13 -10 -13
-5 0 -9 -3 -8 -7 1 -5 -8 -37 -20 -73 -12 -36 -23 -74 -25 -85 -1 -11 -5 -24
-8 -30 -4 -5 -5 -20 -4 -33 1 -12 -1 -22 -4 -22 -12 0 -9 -345 3 -352 7 -5 7
-8 -2 -8 -7 0 -10 -5 -6 -11 4 -7 8 -29 10 -49 2 -21 5 -51 8 -67 5 -27 4 -27
-10 -8 -8 11 -13 28 -10 38 2 9 0 17 -6 17 -5 0 -7 4 -3 9 3 5 1 12 -4 15 -4
3 -12 29 -16 58 -4 29 -9 67 -12 83 -8 51 -9 167 -2 225 11 92 27 171 41 210
3 8 14 38 23 65 10 28 22 55 27 62 5 7 7 17 3 23 -3 5 -2 10 2 10 5 0 15 16
22 35 7 19 17 35 22 35 5 0 9 7 9 16 0 24 128 191 207 269 91 91 119 113 230
188 l93 62 0 83 c0 96 16 95 -134 4 -164 -99 -289 -209 -413 -365 -32 -40 -60
-74 -63 -77 -3 -3 -25 -35 -48 -72 -82 -126 -160 -334 -178 -473 -3 -27 -7
-57 -9 -65 -1 -8 -6 -39 -10 -68 -10 -79 -23 -54 -19 41 3 107 18 189 56 307
27 84 103 256 119 270 3 3 8 12 11 20 16 43 134 192 224 284 87 89 222 190
354 266 19 11 53 30 75 43 l40 24 -3 74 c-5 98 -5 99 -57 75z"/>
</g>
</svg>
